<svg width="35" height="33" viewBox="0 0 35 33" fill="none" xmlns="http://www.w3.org/2000/svg">
<path d="M33.25 4.08333H26.8333V0H24.5V4.08333H10.5V0H8.16667V4.08333H1.75C1.28604 4.08387 0.841232 4.26842 0.51316 4.59649C0.185088 4.92456 0.000540345 5.36937 0 5.83333V30.3333C0.000540345 30.7973 0.185088 31.2421 0.51316 31.5702C0.841232 31.8982 1.28604 32.0828 1.75 32.0833H33.25C33.714 32.0828 34.1588 31.8982 34.4868 31.5702C34.8149 31.2421 34.9995 30.7973 35 30.3333V5.83333C34.9995 5.36937 34.8149 4.92456 34.4868 4.59649C34.1588 4.26842 33.714 4.08387 33.25 4.08333ZM32.6667 29.75H2.33333V6.41667H8.16667V9.33333H10.5V6.41667H24.5V9.33333H26.8333V6.41667H32.6667V29.75Z" fill="white"/>
<path d="M7 13.4167H9.33333V15.75H7V13.4167ZM13.4167 13.4167H15.75V15.75H13.4167V13.4167ZM19.25 13.4167H21.5833V15.75H19.25V13.4167ZM25.6667 13.4167H28V15.75H25.6667V13.4167ZM7 18.6667H9.33333V21H7V18.6667ZM13.4167 18.6667H15.75V21H13.4167V18.6667ZM19.25 18.6667H21.5833V21H19.25V18.6667ZM25.6667 18.6667H28V21H25.6667V18.6667ZM7 23.9167H9.33333V26.25H7V23.9167ZM13.4167 23.9167H15.75V26.25H13.4167V23.9167ZM19.25 23.9167H21.5833V26.25H19.25V23.9167ZM25.6667 23.9167H28V26.25H25.6667V23.9167Z" fill="white"/>
</svg>
