<svg width="37" height="35" viewBox="0 0 37 35" fill="none" xmlns="http://www.w3.org/2000/svg">
<path d="M26.262 30.1996L25.2093 21.7713C25.0601 20.5775 24.48 19.4794 23.5779 18.6833C22.6758 17.8873 21.514 17.4482 20.311 17.4487H16.6857C15.4832 17.449 14.3222 17.8884 13.4208 18.6844C12.5194 19.4804 11.9397 20.5781 11.7906 21.7713L10.7363 30.1996C10.6784 30.6626 10.7197 31.1327 10.8575 31.5785C10.9952 32.0244 11.2262 32.4358 11.5352 32.7856C11.8441 33.1353 12.224 33.4153 12.6494 33.6069C13.0749 33.7986 13.5363 33.8975 14.0029 33.8972H22.997C23.4635 33.8973 23.9247 33.7982 24.35 33.6064C24.7753 33.4147 25.1549 33.1346 25.4637 32.7849C25.7724 32.4353 26.0033 32.0239 26.141 31.5781C26.2786 31.1324 26.3199 30.6625 26.262 30.1996V30.1996Z" stroke="white" stroke-width="2" stroke-linecap="round" stroke-linejoin="round"/>
<path d="M18.5001 10.8691C21.2254 10.8691 23.4347 8.65984 23.4347 5.93456C23.4347 3.20928 21.2254 1 18.5001 1C15.7748 1 13.5656 3.20928 13.5656 5.93456C13.5656 8.65984 15.7748 10.8691 18.5001 10.8691Z" stroke="white" stroke-width="2"/>
<path d="M5.34116 15.8036C7.15801 15.8036 8.63087 14.3307 8.63087 12.5139C8.63087 10.697 7.15801 9.22418 5.34116 9.22418C3.5243 9.22418 2.05145 10.697 2.05145 12.5139C2.05145 14.3307 3.5243 15.8036 5.34116 15.8036Z" stroke="white" stroke-width="2"/>
<path d="M31.6587 15.8036C33.4755 15.8036 34.9484 14.3307 34.9484 12.5139C34.9484 10.697 33.4755 9.22418 31.6587 9.22418C29.8418 9.22418 28.369 10.697 28.369 12.5139C28.369 14.3307 29.8418 15.8036 31.6587 15.8036Z" stroke="white" stroke-width="2"/>
<path d="M31.6588 20.7382H32.1622C32.9409 20.7381 33.6944 21.0143 34.2887 21.5176C34.8829 22.0209 35.2793 22.7186 35.4074 23.4868L35.9552 26.7765C36.0338 27.2478 36.0088 27.7306 35.8819 28.1913C35.755 28.6519 35.5292 29.0794 35.2204 29.444C34.9115 29.8086 34.5269 30.1016 34.0934 30.3025C33.6598 30.5034 33.1877 30.6074 32.7099 30.6073H26.7243M5.34117 20.7382H4.83785C4.05911 20.7381 3.30559 21.0143 2.71134 21.5176C2.11709 22.0209 1.72065 22.7186 1.59255 23.4868L1.04482 26.7765C0.966212 27.2478 0.991228 27.7306 1.11813 28.1913C1.24502 28.6519 1.47075 29.0794 1.77962 29.444C2.08848 29.8086 2.47306 30.1016 2.90661 30.3025C3.34017 30.5034 3.81228 30.6074 4.29011 30.6073H10.2757L5.34117 20.7382Z" stroke="white" stroke-width="2" stroke-linecap="round" stroke-linejoin="round"/>
</svg>
