<svg width="35" height="35" viewBox="0 0 35 35" fill="none" xmlns="http://www.w3.org/2000/svg">
<path d="M17.5 0C7.83594 0 0 7.83594 0 17.5C0 27.1641 7.83594 35 17.5 35C27.1641 35 35 27.1641 35 17.5C35 7.83594 27.1641 0 17.5 0ZM17.5 32.0312C9.47656 32.0312 2.96875 25.5234 2.96875 17.5C2.96875 9.47656 9.47656 2.96875 17.5 2.96875C25.5234 2.96875 32.0312 9.47656 32.0312 17.5C32.0312 25.5234 25.5234 32.0312 17.5 32.0312Z" fill="white"/>
<path d="M15.6249 10.625C15.6249 11.1223 15.8225 11.5992 16.1741 11.9508C16.5257 12.3025 17.0026 12.5 17.4999 12.5C17.9972 12.5 18.4741 12.3025 18.8257 11.9508C19.1774 11.5992 19.3749 11.1223 19.3749 10.625C19.3749 10.1277 19.1774 9.65081 18.8257 9.29917C18.4741 8.94754 17.9972 8.75 17.4999 8.75C17.0026 8.75 16.5257 8.94754 16.1741 9.29917C15.8225 9.65081 15.6249 10.1277 15.6249 10.625ZM18.4374 15H16.5624C16.3905 15 16.2499 15.1406 16.2499 15.3125V25.9375C16.2499 26.1094 16.3905 26.25 16.5624 26.25H18.4374C18.6093 26.25 18.7499 26.1094 18.7499 25.9375V15.3125C18.7499 15.1406 18.6093 15 18.4374 15Z" fill="white"/>
</svg>
