<svg width="35" height="34" viewBox="0 0 35 34" fill="none" xmlns="http://www.w3.org/2000/svg">
<rect width="35" height="34" rx="17" fill="#EBAD00"/>
<path d="M17.5027 8.63864C20.3084 8.63864 20.6377 8.65079 21.7467 8.69939C22.7722 8.74393 23.3267 8.90997 23.6977 9.05172C24.1896 9.238 24.5398 9.45669 24.9067 9.81307C25.2735 10.1695 25.5028 10.5096 25.6904 10.9875C25.8321 11.3479 26.0072 11.8865 26.0531 12.8828C26.1031 13.96 26.1156 14.28 26.1156 17.0054C26.1156 19.7309 26.1031 20.0509 26.0531 21.1281C26.0072 22.1243 25.8363 22.663 25.6904 23.0234C25.4986 23.5013 25.2735 23.8414 24.9067 24.1978C24.5398 24.5542 24.1896 24.7769 23.6977 24.9592C23.3267 25.0969 22.7722 25.267 21.7467 25.3115C20.6377 25.3601 20.3084 25.3723 17.5027 25.3723C14.6971 25.3723 14.3677 25.3601 13.2588 25.3115C12.2333 25.267 11.6788 25.1009 11.3078 24.9592C10.8159 24.7729 10.4657 24.5542 10.0988 24.1978C9.73196 23.8414 9.50267 23.5013 9.31507 23.0234C9.17333 22.663 8.99823 22.1243 8.95238 21.1281C8.90235 20.0509 8.88984 19.7309 8.88984 17.0054C8.88984 14.28 8.90235 13.96 8.95238 12.8828C8.99823 11.8865 9.16916 11.3479 9.31507 10.9875C9.50684 10.5096 9.73196 10.1695 10.0988 9.81307C10.4657 9.45669 10.8159 9.23395 11.3078 9.05172C11.6788 8.91402 12.2333 8.74393 13.2588 8.69939C14.3677 8.64674 14.7013 8.63864 17.5027 8.63864ZM17.5027 6.80005C14.6512 6.80005 14.2927 6.8122 13.1713 6.8608C12.054 6.90939 11.2911 7.08353 10.6241 7.33462C9.93206 7.5938 9.34842 7.94613 8.76478 8.5131C8.18113 9.08006 7.82261 9.65108 7.55163 10.3193C7.29316 10.9673 7.1139 11.7084 7.06388 12.7977C7.01385 13.8831 7.00134 14.2314 7.00134 17.0014C7.00134 19.7714 7.01385 20.1197 7.06388 21.2091C7.1139 22.2944 7.29316 23.0355 7.55163 23.6876C7.81844 24.3598 8.18113 24.9268 8.76478 25.4937C9.34842 26.0607 9.93623 26.409 10.6241 26.6722C11.2911 26.9233 12.054 27.0975 13.1754 27.146C14.2969 27.1946 14.6512 27.2068 17.5069 27.2068C20.3626 27.2068 20.7169 27.1946 21.8384 27.146C22.9556 27.0975 23.7185 26.9233 24.3897 26.6722C25.0818 26.413 25.6654 26.0607 26.249 25.4937C26.8327 24.9268 27.1912 24.3558 27.4622 23.6876C27.7207 23.0396 27.8999 22.2985 27.9499 21.2091C28 20.1197 28.0125 19.7755 28.0125 17.0014C28.0125 14.2273 28 13.8831 27.9499 12.7937C27.8999 11.7084 27.7207 10.9673 27.4622 10.3152C27.1954 9.64298 26.8327 9.07601 26.249 8.50905C25.6654 7.94208 25.0776 7.5938 24.3897 7.33057C23.7227 7.07948 22.9598 6.90534 21.8384 6.85675C20.7128 6.8122 20.3542 6.80005 17.5027 6.80005Z" fill="white"/>
<path d="M17.5027 8.63864C20.3084 8.63864 20.6377 8.65079 21.7467 8.69939C22.7722 8.74393 23.3267 8.90997 23.6977 9.05172C24.1896 9.238 24.5398 9.45669 24.9067 9.81307C25.2735 10.1695 25.5028 10.5096 25.6904 10.9875C25.8321 11.3479 26.0072 11.8865 26.0531 12.8828C26.1031 13.96 26.1156 14.28 26.1156 17.0054C26.1156 19.7309 26.1031 20.0509 26.0531 21.1281C26.0072 22.1243 25.8363 22.663 25.6904 23.0234C25.4986 23.5013 25.2735 23.8414 24.9067 24.1978C24.5398 24.5542 24.1896 24.7769 23.6977 24.9592C23.3267 25.0969 22.7722 25.267 21.7467 25.3115C20.6377 25.3601 20.3084 25.3723 17.5027 25.3723C14.6971 25.3723 14.3677 25.3601 13.2588 25.3115C12.2333 25.267 11.6788 25.1009 11.3078 24.9592C10.8159 24.7729 10.4657 24.5542 10.0988 24.1978C9.73196 23.8414 9.50267 23.5013 9.31507 23.0234C9.17333 22.663 8.99823 22.1243 8.95238 21.1281C8.90235 20.0509 8.88984 19.7309 8.88984 17.0054C8.88984 14.28 8.90235 13.96 8.95238 12.8828C8.99823 11.8865 9.16916 11.3479 9.31507 10.9875C9.50684 10.5096 9.73196 10.1695 10.0988 9.81307C10.4657 9.45669 10.8159 9.23395 11.3078 9.05172C11.6788 8.91402 12.2333 8.74393 13.2588 8.69939C14.3677 8.64674 14.7013 8.63864 17.5027 8.63864Z" fill="white"/>
<path d="M17.5028 11.765C14.5262 11.765 12.1083 14.1098 12.1083 17.0054C12.1083 19.901 14.5221 22.2458 17.5028 22.2458C20.4835 22.2458 22.8973 19.901 22.8973 17.0054C22.8973 14.1098 20.4835 11.765 17.5028 11.765ZM17.5028 20.4032C15.5684 20.4032 14.0009 18.8804 14.0009 17.0014C14.0009 15.1223 15.5684 13.5996 17.5028 13.5996C19.4372 13.5996 21.0047 15.1223 21.0047 17.0014C21.0047 18.8804 19.4372 20.4032 17.5028 20.4032Z" fill="#EBAD00"/>
<path d="M23.11 12.7775C23.8053 12.7775 24.3689 12.2299 24.3689 11.5544C24.3689 10.879 23.8053 10.3314 23.11 10.3314C22.4146 10.3314 21.851 10.879 21.851 11.5544C21.851 12.2299 22.4146 12.7775 23.11 12.7775Z" fill="#EBAD00"/>
</svg>
