<svg width="35" height="35" viewBox="0 0 35 35" fill="none" xmlns="http://www.w3.org/2000/svg">
<path fill-rule="evenodd" clip-rule="evenodd" d="M7.65625 9.47917C7.65625 6.05616 10.4311 3.28125 13.8542 3.28125C17.2772 3.28125 20.0521 6.05616 20.0521 9.47917C20.0521 12.9022 17.2772 15.6771 13.8542 15.6771C10.4311 15.6771 7.65625 12.9022 7.65625 9.47917ZM13.8542 5.46875C11.6393 5.46875 9.84375 7.26428 9.84375 9.47917C9.84375 11.6941 11.6393 13.4896 13.8542 13.4896C16.0691 13.4896 17.8646 11.6941 17.8646 9.47917C17.8646 7.26428 16.0691 5.46875 13.8542 5.46875Z" fill="white"/>
<path fill-rule="evenodd" clip-rule="evenodd" d="M12.2019 19.3229H15.5065C17.0992 19.3229 18.3613 19.3229 19.3787 19.406C20.4191 19.491 21.2993 19.6684 22.1031 20.0779C23.4065 20.742 24.4663 21.8018 25.1304 23.1052C25.54 23.909 25.7173 24.7893 25.8023 25.8297C25.8854 26.847 25.8854 28.1092 25.8854 29.7019V30.625C25.8854 31.2291 25.3957 31.7188 24.7917 31.7188H2.91667C2.31261 31.7188 1.82292 31.2291 1.82292 30.625L1.82292 29.7019C1.82291 28.1092 1.8229 26.847 1.90602 25.8296C1.99102 24.7893 2.16837 23.909 2.57793 23.1052C3.24204 21.8018 4.30174 20.7421 5.60517 20.0779C6.40896 19.6684 7.28928 19.491 8.32963 19.406C9.34699 19.3229 10.6092 19.3229 12.2019 19.3229ZM6.59825 22.027C5.70646 22.4814 4.9814 23.2065 4.527 24.0983C4.30076 24.5423 4.16021 25.1027 4.08626 26.0078C4.01462 26.8846 4.01064 27.9941 4.01043 29.5313H23.6979C23.6977 27.9941 23.6937 26.8846 23.6221 26.0078C23.5481 25.1027 23.4076 24.5423 23.1814 24.0983C22.727 23.2065 22.0019 22.4814 21.1101 22.027M6.59825 22.027C7.04229 21.8008 7.60269 21.6602 8.50775 21.5863C9.4256 21.5113 10.5985 21.5104 12.25 21.5104H15.4583C17.1099 21.5104 18.2827 21.5113 19.2006 21.5863C20.1056 21.6602 20.666 21.8008 21.1101 22.027" fill="white"/>
<path fill-rule="evenodd" clip-rule="evenodd" d="M27.7083 8.38544C28.3124 8.38544 28.8021 8.87513 28.8021 9.47919V12.7604H32.0833C32.6874 12.7604 33.1771 13.2501 33.1771 13.8542C33.1771 14.4582 32.6874 14.9479 32.0833 14.9479H28.8021V18.2292C28.8021 18.8332 28.3124 19.3229 27.7083 19.3229C27.1043 19.3229 26.6146 18.8332 26.6146 18.2292V14.9479H23.3333C22.7293 14.9479 22.2396 14.4582 22.2396 13.8542C22.2396 13.2501 22.7293 12.7604 23.3333 12.7604H26.6146V9.47919C26.6146 8.87513 27.1043 8.38544 27.7083 8.38544Z" fill="white"/>
</svg>
