<svg width="14" height="14" viewBox="0 0 14 14" fill="none" xmlns="http://www.w3.org/2000/svg">
<path d="M3.83532 11.3294L4.31799 11.6114C5.13195 12.0861 6.05771 12.3353 6.99999 12.3334C8.05482 12.3334 9.08597 12.0206 9.96303 11.4345C10.8401 10.8485 11.5237 10.0156 11.9273 9.04102C12.331 8.06648 12.4366 6.99412 12.2308 5.95956C12.0251 4.92499 11.5171 3.97468 10.7712 3.2288C10.0253 2.48292 9.07504 1.97497 8.04047 1.76919C7.00591 1.5634 5.93355 1.66902 4.95901 2.07268C3.98447 2.47635 3.15152 3.15994 2.56548 4.037C1.97945 4.91406 1.66666 5.94521 1.66666 7.00004C1.66666 7.95737 1.91799 8.87537 2.38932 9.68271L2.67066 10.1654L2.23532 11.766L3.83532 11.3294ZM0.335989 13.6667L1.23732 10.3547C0.643414 9.33661 0.331386 8.1787 0.333322 7.00004C0.333322 3.31804 3.31799 0.333374 6.99999 0.333374C10.682 0.333374 13.6667 3.31804 13.6667 7.00004C13.6667 10.682 10.682 13.6667 6.99999 13.6667C5.82184 13.6686 4.66443 13.3568 3.64666 12.7634L0.335989 13.6667ZM4.59399 3.87204C4.68332 3.86537 4.77332 3.86537 4.86266 3.86937C4.89865 3.87204 4.93466 3.87604 4.97066 3.88004C5.07666 3.89204 5.19332 3.95671 5.23266 4.04604C5.43132 4.49671 5.62466 4.95071 5.81132 5.40604C5.85266 5.50737 5.82799 5.63737 5.74932 5.76404C5.69522 5.84969 5.6367 5.93247 5.57399 6.01204C5.49866 6.10871 5.33666 6.28604 5.33666 6.28604C5.33666 6.28604 5.27066 6.36471 5.29599 6.46271C5.30532 6.50004 5.33599 6.55404 5.36399 6.59937L5.40332 6.66271C5.57399 6.94737 5.80332 7.23604 6.08332 7.50804C6.16332 7.58537 6.24132 7.66471 6.32532 7.73871C6.63732 8.01404 6.99065 8.23871 7.37199 8.40537L7.37532 8.40671C7.43199 8.43137 7.46066 8.44471 7.54332 8.48004C7.58466 8.49737 7.62732 8.51271 7.67066 8.52404C7.71544 8.53545 7.76259 8.5333 7.80615 8.51787C7.84971 8.50244 7.88771 8.47442 7.91532 8.43737C8.39799 7.85271 8.44199 7.81471 8.44599 7.81471V7.81604C8.47952 7.78477 8.51936 7.76103 8.56282 7.74643C8.60629 7.73182 8.65238 7.72669 8.69799 7.73137C8.73799 7.73404 8.77866 7.74137 8.81599 7.75804C9.16999 7.92004 9.74932 8.17271 9.74932 8.17271L10.1373 8.34671C10.2027 8.37804 10.262 8.45204 10.264 8.52337C10.2667 8.56804 10.2707 8.64004 10.2553 8.77204C10.234 8.94471 10.182 9.15204 10.13 9.26071C10.0944 9.33487 10.0471 9.40284 9.98999 9.46204C9.92272 9.53267 9.84907 9.59694 9.76999 9.65404C9.74263 9.67462 9.71485 9.69462 9.68666 9.71404C9.60374 9.76665 9.51854 9.81559 9.43132 9.86071C9.25968 9.95188 9.0701 10.0042 8.87599 10.014C8.75266 10.0207 8.62932 10.03 8.50532 10.0234C8.49999 10.0234 8.12666 9.96537 8.12666 9.96537C7.17882 9.71607 6.30225 9.24902 5.56666 8.60137C5.41599 8.46871 5.27666 8.32604 5.13399 8.18404C4.54066 7.59404 4.09266 6.95737 3.82066 6.35604C3.68143 6.0609 3.60623 5.73964 3.59999 5.41337C3.59724 5.00861 3.72955 4.61449 3.97599 4.29337C4.02466 4.23071 4.07066 4.16537 4.14999 4.09004C4.23466 4.01004 4.28799 3.96737 4.34599 3.93804C4.4231 3.89939 4.50723 3.87672 4.59332 3.87137L4.59399 3.87204Z" fill="#EBAD00"/>
</svg>
