<svg width="34" height="34" viewBox="0 0 34 34" fill="none" xmlns="http://www.w3.org/2000/svg">
<rect width="34" height="34" rx="17" fill="#EBAD00"/>
<path d="M28.6436 11.1609C28.3636 10.1205 27.5433 9.30026 26.503 9.02017C24.6023 8.5 16.9999 8.5 16.9999 8.5C16.9999 8.5 9.39743 8.5 7.49681 9.00016C6.47648 9.28025 5.63621 10.1205 5.35612 11.1609C4.85596 13.0615 4.85596 17.0027 4.85596 17.0027C4.85596 17.0027 4.85596 20.964 5.35612 22.8446C5.63621 23.885 6.45647 24.7052 7.49681 24.9853C9.41743 25.5055 16.9999 25.5055 16.9999 25.5055C16.9999 25.5055 24.6023 25.5055 26.503 25.0053C27.5433 24.7252 28.3636 23.905 28.6436 22.8646C29.1438 20.964 29.1438 17.0228 29.1438 17.0228C29.1438 17.0228 29.1638 13.0615 28.6436 11.1609Z" fill="white"/>
<path d="M14.5791 20.6439L20.9011 17.0027L14.5791 13.3616V20.6439Z" fill="#EBAD00"/>
</svg>
